<!--?xml version="1.0" encoding="utf-8"?-->
<svg viewBox="0 0 1515.112 1194.991" xmlns="http://www.w3.org/2000/svg" width="100%" height="100%">
  <defs>
    <clipPath clipPathUnits="userSpaceOnUse" id="clipPath1204">
      <path d="m 2623.67,13301 h 3761.07 v 3761.07 H 2623.67 Z" id="path1202"></path>
    </clipPath>
  </defs>
  <g style="" class="g-2">
    <path
      d="M 895.521 337.514 C 890.161 346.753 880.444 353.3 869.833 354.673 C 867.342 355.233 793.719 355.127 734.365 355.02 C 694.967 354.953 661.859 354.873 660.02 355.007 C 613.743 354.26 613.524 285.18 660.031 284.38 L 865.042 284.38 C 890.701 283.74 908.517 312.887 896.661 335.407 C 896.305 336.114 895.924 336.82 895.521 337.514 M 1513.809 290.06 C 1509.075 257.874 1485.395 229.874 1454.382 219.901 C 1445.462 216.967 1436.302 215.474 1426.835 215.474 C 1416.809 216.634 1173.369 216.034 896.168 215.447 C 525.121 214.661 93.604 213.874 80.546 217.261 C 48.107 223.647 21.002 249.474 13.021 281.474 C 6.766 291.647 11.843 426.287 10.247 440.54 L 10.25 1099.031 C 10.25 1103.578 10.595 1108.058 11.263 1112.431 C 15.519 1140.085 32.491 1163.431 56.298 1176.391 C 68.865 1183.258 83.61 1187.071 98.234 1187.018 C 106.806 1185.511 398.033 1186.191 706.999 1186.871 C 1057.498 1187.645 1430.822 1188.418 1440.209 1185.991 C 1482.675 1179.805 1515.155 1141.925 1514.822 1099.031 C 1514.209 985.605 1516.409 389.593 1513.809 290.06"
      style="fill: rgb(58, 129, 189); fill-opacity: 1; fill-rule: nonzero; stroke: none;" id="path1186">
    </path>
    <path
      d="M 854.792 362.967 L 649.778 362.967 C 630.279 362.967 614.47 347.167 614.47 327.66 C 614.47 308.167 630.279 292.354 649.778 292.354 L 854.792 292.354 C 874.292 292.354 890.1 308.167 890.1 327.66 C 890.1 347.167 874.292 362.967 854.792 362.967 M 1416.582 223.447 L 87.984 223.447 C 39.397 223.447 -0.001 262.847 -0.001 311.434 L -0.001 1107.005 C -0.001 1155.591 39.397 1194.991 87.984 1194.991 L 1416.582 1194.991 C 1465.169 1194.991 1504.569 1155.591 1504.569 1107.005 L 1504.569 311.434 C 1504.569 262.847 1465.169 223.447 1416.582 223.447"
      style="fill: rgb(255, 255, 255); fill-opacity: 1; fill-rule: nonzero; stroke: none;" id="path1188">
    </path>
    <path
      d="M 649.778 292.354 L 854.792 292.354 C 874.292 292.354 890.1 308.167 890.1 327.66 C 890.1 347.167 874.292 362.967 854.792 362.967 L 649.778 362.967 C 630.279 362.967 614.47 347.167 614.47 327.66 C 614.47 308.167 630.279 292.354 649.778 292.354 Z M 1504.569 448.513 L 1504.569 311.434 C 1504.569 262.847 1465.169 223.447 1416.582 223.447 L 87.984 223.447 C 39.397 223.447 -0.001 262.847 -0.001 311.434 L -0.001 448.513 L 1504.569 448.513"
      style="fill: rgb(142, 210, 255); fill-opacity: 1; fill-rule: nonzero; stroke: none;" id="path1190" class="g-4">
    </path>
    <path
      d="M 1416.582 223.447 L 87.984 223.447 C 39.397 223.447 -0.001 262.847 -0.001 311.434 L -0.001 1107.005 C -0.001 1155.591 39.397 1194.991 87.984 1194.991 L 1416.582 1194.991 C 1465.169 1194.991 1504.569 1155.591 1504.569 1107.005 L 1504.569 311.434 C 1504.569 262.847 1465.169 223.447 1416.582 223.447 Z M 1416.582 251.927 C 1449.395 251.927 1476.102 278.62 1476.102 311.434 L 1476.102 1107.005 C 1476.102 1139.818 1449.395 1166.511 1416.582 1166.511 L 87.984 1166.511 C 55.17 1166.511 28.473 1139.818 28.473 1107.005 L 28.473 311.434 C 28.473 278.62 55.17 251.927 87.984 251.927 L 1416.582 251.927"
      style="fill: rgb(142, 210, 255); fill-opacity: 1; fill-rule: nonzero; stroke: none;" id="path1192" class="g-5">
    </path>
  </g>
  <g style="" class="g-3">
    <path
      d="M 739.073 77.434 C 739.073 56.554 755.999 39.634 776.864 39.634 C 797.741 39.634 814.666 56.554 814.666 77.434 C 814.666 98.314 797.741 115.234 776.864 115.234 C 755.999 115.234 739.073 98.314 739.073 77.434 Z M 880.465 134.901 C 881.752 47.768 869.872 10.128 866.501 6.768 C 863.778 4.048 790.544 -0.046 776.864 0.008 C 763.185 -0.046 689.961 4.048 687.239 6.768 C 683.868 10.128 671.988 47.768 673.264 134.901 C 674.495 217.994 651.487 298.9 663.014 314.047 C 666.419 318.514 872.492 319.74 872.492 319.74 C 895.51 317.127 879.246 217.994 880.465 134.901"
      style="fill: rgb(37, 70, 84); fill-opacity: 1; fill-rule: nonzero; stroke: none;" id="path1184" class="g-6">
    </path>
    <path
      d="M 720.849 83.128 C 720.849 62.248 737.775 45.328 758.64 45.328 C 779.519 45.328 796.443 62.248 796.443 83.128 C 796.443 104.007 779.519 120.927 758.64 120.927 C 737.775 120.927 720.849 104.007 720.849 83.128 Z M 862.241 140.594 C 863.528 53.461 851.649 15.821 848.277 12.461 C 845.554 9.741 772.32 5.648 758.64 5.701 C 744.961 5.648 671.738 9.741 669.016 12.461 C 665.644 15.821 653.766 53.461 655.04 140.594 C 656.271 223.687 633.263 304.607 644.79 319.74 C 648.195 324.207 869.097 324.207 872.492 319.74 C 884.029 304.607 861.022 223.687 862.241 140.594"
      style="fill: rgb(58, 99, 121); fill-opacity: 1; fill-rule: nonzero; stroke: none;" id="path1360" class="g-7">
    </path>
    <path
      d="M 842.549 256.767 C 831.573 259.194 734.357 270.434 660.051 265.567 C 656.702 265.354 638.452 311.42 644.79 319.74 C 648.195 324.207 869.097 324.207 872.492 319.74 C 880.82 308.807 871.149 263.607 865.582 208.061 C 864.712 209.861 863.061 252.234 842.549 256.767"
      style="fill: rgb(37, 70, 84); fill-opacity: 1; fill-rule: nonzero; stroke: none;" id="path1362" class="g-8">
    </path>
    <path
      d="M 671.703 148.274 C 677.683 144.007 692.559 166.527 737.468 174.754 C 780.607 182.674 831.994 168.781 837.698 173.901 C 843.402 179.034 843.402 220.034 815.213 232.847 C 787.024 245.66 683.947 251.927 662.735 243.487 C 657.162 241.274 661.619 228.74 664.016 208.061 C 666.84 183.674 668.47 150.594 671.703 148.274"
      style="fill: rgb(76, 124, 149); fill-opacity: 1; fill-rule: nonzero; stroke: none;" id="path1372" class="g-9">
    </path>
  </g>
  <path d="M 89.822 1011.939 L 591.296 1011.939 L 591.296 510.465 L 89.822 510.465 L 89.822 1011.939 Z"
    style="fill: rgb(154, 224, 255); fill-opacity: 1; fill-rule: nonzero; stroke: none;" id="path1194" class="g-10">
  </path>
  <g id="g1200" clip-path="url(#clipPath1204)" style="pointer-events: none;"
    transform="matrix(0.133333, 0, 0, -0.133333, -259.999908, 2785.400146)" class="g-1">
    <path
      d="M 6234.285 13778.697 C 6234.285 13833.192 6190.088 13877.397 6135.562 13877.397 L 5699.511 13877.397 C 5644.986 13877.397 5600.781 13833.192 5600.781 13778.697 C 5600.781 13724.195 5644.986 13679.997 5699.511 13679.997 L 6135.562 13679.997 C 6190.088 13679.997 6234.285 13724.195 6234.285 13778.697 M 5463.861 13748.195 L 2875.177 13748.195 C 2858.309 13748.195 2844.629 13761.792 2844.629 13778.697 C 2844.629 13795.595 2858.309 13809.297 2875.177 13809.297 L 5463.861 13809.297 C 5480.728 13809.297 5494.408 13795.595 5494.408 13778.697 C 5494.408 13761.792 5480.728 13748.195 5463.861 13748.195 M 6234.285 14747.197 C 6234.285 14801.692 6190.088 14845.897 6135.562 14845.897 L 5699.511 14845.897 C 5644.986 14845.897 5600.781 14801.692 5600.781 14747.197 C 5600.781 14692.694 5644.986 14648.497 5699.511 14648.497 L 6135.562 14648.497 C 6190.088 14648.497 6234.285 14692.694 6234.285 14747.197 M 5463.861 14716.597 L 2875.177 14716.597 C 2858.309 14716.597 2844.629 14730.292 2844.629 14747.197 C 2844.629 14764.095 2858.309 14777.692 2875.177 14777.692 L 5463.861 14777.692 C 5480.728 14777.692 5494.408 14764.095 5494.408 14747.197 C 5494.408 14730.292 5480.728 14716.597 5463.861 14716.597 M 3409.958 14262.996 C 3409.958 14317.499 3365.76 14361.696 3311.228 14361.696 L 2875.177 14361.696 C 2820.659 14361.696 2776.461 14317.499 2776.461 14262.996 C 2776.461 14208.396 2820.659 14164.198 2875.177 14164.198 L 3311.228 14164.198 C 3365.76 14164.198 3409.958 14208.396 3409.958 14262.996 M 6135.562 14232.396 L 3538.658 14232.396 C 3521.791 14232.396 3508.096 14246.098 3508.096 14262.996 C 3508.096 14279.796 3521.791 14293.498 3538.658 14293.498 L 6135.562 14293.498 C 6152.43 14293.498 6166.11 14279.796 6166.11 14262.996 C 6166.11 14246.098 6152.43 14232.396 6135.562 14232.396 M 6234.285 15715.697 C 6234.285 15770.192 6190.088 15814.397 6135.562 15814.397 L 5699.511 15814.397 C 5644.986 15814.397 5600.781 15770.192 5600.781 15715.697 C 5600.781 15661.097 5644.986 15616.892 5699.511 15616.892 L 6135.562 15616.892 C 6190.088 15616.892 6234.285 15661.097 6234.285 15715.697 M 5463.861 15685.097 L 2875.177 15685.097 C 2858.309 15685.097 2844.629 15698.792 2844.629 15715.697 C 2844.629 15732.497 2858.309 15746.192 2875.177 15746.192 L 5463.861 15746.192 C 5480.728 15746.192 5494.408 15732.497 5494.408 15715.697 C 5494.408 15698.792 5480.728 15685.097 5463.861 15685.097 M 3409.958 15231.398 C 3409.958 15285.893 3365.76 15330.196 3311.228 15330.196 L 2875.177 15330.196 C 2820.659 15330.196 2776.461 15285.893 2776.461 15231.398 C 2776.461 15176.896 2820.659 15132.698 2875.177 15132.698 L 3311.228 15132.698 C 3365.76 15132.698 3409.958 15176.896 3409.958 15231.398 M 6135.562 15200.896 L 3538.658 15200.896 C 3521.791 15200.896 3508.096 15214.598 3508.096 15231.398 C 3508.096 15248.296 3521.791 15261.998 3538.658 15261.998 L 6135.562 15261.998 C 6152.43 15261.998 6166.11 15248.296 6166.11 15231.398 C 6166.11 15214.598 6152.43 15200.896 6135.562 15200.896 M 6234.285 16684.092 C 6234.285 16738.692 6190.088 16782.897 6135.562 16782.897 L 5699.511 16782.897 C 5644.986 16782.897 5600.781 16738.692 5600.781 16684.092 C 5600.781 16629.597 5644.986 16585.392 5699.511 16585.392 L 6135.562 16585.392 C 6190.088 16585.392 6234.285 16629.597 6234.285 16684.092 M 5463.861 16653.597 L 2875.177 16653.597 C 2858.309 16653.597 2844.629 16667.292 2844.629 16684.092 C 2844.629 16700.997 2858.309 16714.692 2875.177 16714.692 L 5463.861 16714.692 C 5480.728 16714.692 5494.408 16700.997 5494.408 16684.092 C 5494.408 16667.292 5480.728 16653.597 5463.861 16653.597 M 3409.958 16199.898 C 3409.958 16254.393 3365.76 16298.599 3311.228 16298.599 L 2875.177 16298.599 C 2820.659 16298.599 2776.461 16254.393 2776.461 16199.898 C 2776.461 16145.396 2820.659 16101.198 2875.177 16101.198 L 3311.228 16101.198 C 3365.76 16101.198 3409.958 16145.396 3409.958 16199.898 M 6135.562 16169.298 L 3538.658 16169.298 C 3521.791 16169.298 3508.096 16182.993 3508.096 16199.898 C 3508.096 16216.796 3521.791 16230.498 3538.658 16230.498 L 6135.562 16230.498 C 6152.43 16230.498 6166.11 16216.796 6166.11 16199.898 C 6166.11 16182.993 6152.43 16169.298 6135.562 16169.298"
      style="fill: rgb(58, 99, 121); fill-opacity: 1; fill-rule: nonzero; stroke: none;" id="path1196" class="g-11">
    </path>
    <path
      d="M 5520.66,13301 H 3595.92 c 21.44,32.3 37.48,57.7 45.48,73 32.1,61.4 84.2,113.2 103.34,131.1 l -0.04,0.1 c 88.28,123.8 292.07,207.7 391.97,243 h 847.16 c 99.9,-35.3 303.69,-119.2 391.96,-243 l -0.88,-3 c 21.15,-20.1 69.75,-69.8 100.27,-128.2 8,-15.3 24.04,-40.7 45.48,-73 m -626.1,508.3 h -33.19 c 0.75,4.4 1.37,7 1.87,7.8 0.8,1.2 2.33,1.7 4.45,1.7 5.65,0 15.5,-3.9 26.87,-9.5 m -108.66,0 h -459.65 c 5.12,3.2 10.06,6.4 14.78,9.7 8.72,6 16.68,11.9 23.62,17 10.41,7.7 18.52,13.6 23.46,15.4 l 2.2,0.6 c 2.61,-0.8 4.61,-5.2 6.9,-12.3 v 20.8 c -519.65,31.8 -836.45,199.5 -987.38,407.7 -1.78,34.3 -21.09,64 -49.14,80.2 -18.45,36.5 -32.35,73.7 -41.87,111.3 -9.39,37.1 -14.58,74.5 -15.62,111.8 v 0 c -0.81,29.4 0.3,58.3 3.12,86.8 -26.36,14.4 -48.1,34.6 -65.97,58.3 h 2223.51 c 16.87,0 30.55,13.7 30.55,30.6 0,16.9 -13.68,30.5 -30.55,30.5 H 3205.14 c -28.4,64.5 -39.44,138.4 -42.57,194.2 -3.25,58.3 5.22,116 22.09,160.8 h 126.57 c 54.53,0 98.73,44.2 98.73,98.7 0,54.5 -44.2,98.8 -98.73,98.8 h -100.41 c 9.4,74.1 27.8,148.1 52.97,220.3 15.92,45.7 34.49,90.7 55.22,134.6 h 1120.07 c 91.25,-59.3 194.27,-115.5 307.35,-164.1 211.07,-90.8 537.6,-184.1 836.96,-192 0,0 -28.4,500.5 -312.44,840.3 h 47.01 c 122.14,-92.6 239.56,-221.6 332.41,-368 -29.63,-17 -49.59,-49 -49.59,-85.6 0,-54.6 44.21,-98.8 98.73,-98.8 h 49.92 c 14.6,-32.9 27.77,-66.2 39.34,-99.8 54.63,-46.1 116.48,-76.9 188.25,-76.9 4.7,0 9.45,0.1 14.24,0.4 -37.33,-29.6 -89.94,-43.5 -146.36,-43.5 -7.36,0 -14.79,0.3 -22.25,0.8 10.06,-45.4 16.87,-90.8 20.01,-135.9 h -2304 c -16.87,0 -30.56,-13.7 -30.56,-30.6 0,-16.8 13.69,-30.5 30.56,-30.5 h 2305.96 c -0.04,-6.7 -0.17,-13.4 -0.38,-20.1 32.9,-45.1 51.75,-126.5 47.14,-208.9 -2.06,-36.7 -7.55,-81.4 -19.17,-126 h -172.7 c -54.52,0 -98.73,-44.2 -98.73,-98.7 0,-54.5 44.21,-98.7 98.73,-98.7 h 57.27 c 2.17,-25.3 2.98,-51 2.25,-77 -2.64,-94.4 -24.47,-189.4 -71.92,-278 H 3538.66 c -16.87,0 -30.56,-13.7 -30.56,-30.5 0,-16.9 13.69,-30.6 30.56,-30.6 h 2110.79 c -138.8,-197.7 -423.78,-351.8 -935.68,-374.5 v -22 c 2.81,9.3 4.98,15.2 8.07,16.1 0.85,-0.1 1.9,-0.5 3.05,-0.9 4.99,-2.1 12.75,-7.8 22.62,-15.1 6.93,-5.1 14.9,-11 23.62,-17 4.72,-3.3 9.65,-6.5 14.77,-9.7 m -526.77,0 h -33.18 c 11.36,5.6 21.21,9.5 26.86,9.5 2.12,0 3.65,-0.5 4.45,-1.7 0.5,-0.8 1.12,-3.4 1.87,-7.8 m 91.42,1936.9 H 3349.64 c 27.05,51.1 56.88,100.2 88.68,146.7 -66.41,9.4 -126.52,36.9 -159.84,80.9 23.71,-7.6 47.19,-11 70.4,-11 70.63,0 138.65,31.6 202.37,74.9 44.5,50 90.74,94.4 137.16,131.6 h 256.87 c 26.21,-56.8 69.89,-108.9 117.44,-148.4 63.26,-85.1 161.21,-181.8 287.83,-274.7 m 877.35,484.3 h -12.7 c -5.88,5.9 -11.86,11.7 -17.94,17.5 10.2,-5.6 20.43,-11.4 30.64,-17.5 m -1303.14,0 H 3775.2 c 8.36,5 16.68,9.8 24.97,14.3 42.65,31.3 84.4,56 124.51,75.4 -6.7,-29.8 -6.1,-60 0.08,-89.7"
      style="fill: rgb(94, 155, 188); fill-opacity: 1; fill-rule: nonzero; stroke: none;" id="path1206" class="g-12">
    </path>
    <path
      d="m 4983.83,13748.2 h -847.16 c 4.24,1.5 8.3,2.9 12.15,4.2 2.85,8.4 4.48,13.1 4.48,13.1 0,0 41.89,28.4 72.65,43.8 h 33.18 c 1.24,-7.4 2.83,-19.6 4.71,-36 l 1.74,1.1 1.76,1.1 c 1.52,1 3.05,1.9 4.59,2.9 l 2.14,1.3 c 1.44,0.9 2.88,1.8 4.33,2.6 l 2.26,1.4 c 1.41,0.9 2.8,1.7 4.2,2.5 l 2.32,1.4 c 1.38,0.8 2.72,1.5 4.06,2.3 l 2.26,1.3 c 1.41,0.8 2.76,1.5 4.11,2.2 l 1.95,1.1 c 1.95,1 3.87,2 5.69,2.9 5.12,2.6 10.11,5.4 14.97,8.2 2.04,1.2 4.05,2.4 6.03,3.7 h 459.65 c 1.99,-1.3 4,-2.5 6.03,-3.7 4.87,-2.8 9.86,-5.6 14.98,-8.2 14.47,-7.2 33.31,-18.8 49.18,-29.1 2.13,18.9 3.91,32.9 5.28,41 h 33.19 c 30.76,-15.4 72.65,-43.8 72.65,-43.8 0,0 1.62,-4.7 4.47,-13.1 3.85,-1.3 7.91,-2.7 12.15,-4.2 m 665.62,484.2 H 3538.66 c -16.87,0 -30.56,13.7 -30.56,30.6 0,16.8 13.69,30.5 30.56,30.5 h 2148.45 c -11.12,-20.7 -23.64,-41.1 -37.66,-61.1 m -2239.62,35.8 c -18.99,26.1 -35.33,52.9 -49.14,80.2 28.05,-16.2 47.36,-45.9 49.14,-80.2 m 2346.95,380.3 h -57.27 c -54.52,0 -98.73,44.2 -98.73,98.7 0,54.5 44.21,98.7 98.73,98.7 h 172.7 c -18.87,-72.5 -53.94,-144.8 -116.8,-183.2 0.5,-4.8 0.96,-9.5 1.37,-14.2 m -292.92,68.1 H 3240.35 c -13.98,18.6 -25.59,39.3 -35.21,61.1 h 2258.72 c 16.87,0 30.55,-13.6 30.55,-30.5 0,-16.9 -13.68,-30.6 -30.55,-30.6 m -2152.63,416.1 h -126.57 c 5.87,15.6 12.75,29.6 20.52,41.5 -3.1,51.6 -0.96,103.8 5.64,156 h 100.41 c 54.53,0 98.73,-44.3 98.73,-98.8 0,-54.5 -44.2,-98.7 -98.73,-98.7 m 2533.39,68.2 H 3538.66 c -16.87,0 -30.56,13.7 -30.56,30.5 0,16.9 13.69,30.6 30.56,30.6 h 2304 c 1.42,-20.5 2.09,-40.8 1.96,-61.1 m -95.19,416 h -49.92 c -54.52,0 -98.73,44.2 -98.73,98.8 0,36.6 19.96,68.6 49.59,85.6 37.46,-59 70.91,-120.9 99.06,-184.4 m -1310.35,68.2 H 3319.01 c 9.75,20.7 19.97,41 30.63,61.1 h 1000.91 c 28.12,-20.6 57.65,-41 88.53,-61.1 m 878.88,484.2 h -47.01 c -17.59,21.1 -36.15,41.5 -55.75,61.2 h 12.7 c 30.11,-18.1 60.22,-38.5 90.06,-61.2 m -1372.68,0 h -256.87 c 28.99,23.3 58.05,43.8 86.79,61.2 h 149.56 c 4.32,-20.8 11.35,-41.2 20.52,-61.2"
      style="fill: rgb(35, 68, 89); fill-opacity: 1; fill-rule: nonzero; stroke: none;" id="path1208" class="g-13">
    </path>
    <path
      d="m 5198.89,13628.4 c -117.97,161.2 -367.27,264.4 -802.24,268.1 v 0.1 c -1.38,0 -2.73,0 -4.1,0 -1.37,0 -2.73,0 -4.1,0 v -0.1 c -434.97,-3.7 -684.28,-106.9 -802.24,-268.1 -47.41,-64.8 110.42,-356.7 111,-361.3 0,0 102.52,-317.9 136.87,-544.8 50.2,-111.9 184.99,-156.9 552.07,-156.9 367.09,0 538.43,97.7 570.31,206 6.93,254 131.43,495.7 131.43,495.7 0.58,4.6 158.41,296.5 111,361.3"
      style="fill: rgb(252, 210, 149); fill-opacity: 1; fill-rule: nonzero; stroke: none;" id="path1210" class="g-14">
    </path>
    <path
      d="m 4230.13,14086.9 v -223.8 c 0,-41.7 70.87,-75.5 158.28,-75.5 87.42,0 158.28,33.8 158.28,75.5 v 223.8 h -316.56"
      style="fill: rgb(186, 125, 81); fill-opacity: 1; fill-rule: nonzero; stroke: none;" id="path1212" class="g-15">
    </path>
    <path
      d="m 3680.86,16401.2 c -215.21,-90.1 -468.76,-386.4 -584.16,-717.4 -82.29,-236.1 -92.56,-491.9 49.06,-706.1 l 449.31,1129.8 85.79,293.7"
      style="fill: rgb(65, 49, 39); fill-opacity: 1; fill-rule: nonzero; stroke: none;" id="path1214" class="g-16">
    </path>
    <path d="m 4903.74,16434.7 c 444.95,-130.9 1009.99,-942.3 669.73,-1457 l -449.31,1129.8 -220.42,327.2"
      style="fill: rgb(65, 49, 39); fill-opacity: 1; fill-rule: nonzero; stroke: none;" id="path1216" class="g-17">
    </path>
    <path
      d="M 3266.92 15087.5 C 3266.92 15087.5 3240.94 15392.7 3079.27 15348.2 C 3020.39 15332 2981.59 15219.6 2987.99 15105.2 C 2994.63 14986.6 3036.86 14786.4 3205.34 14769 L 3266.92 15087.5"
      style="fill: rgb(224, 159, 113); fill-opacity: 1; fill-rule: nonzero; stroke: none;" id="path1218" class="g-18">
    </path>
    <path
      d="m 5445.36,15087.5 c 0,0 25.98,305.2 187.65,260.7 58.88,-16.2 97.68,-128.6 91.28,-243 -6.64,-118.6 -48.87,-318.8 -217.35,-336.2 l -61.58,318.5"
      style="fill: rgb(224, 159, 113); fill-opacity: 1; fill-rule: nonzero; stroke: none;" id="path1220" class="g-19">
    </path>
    <path
      d="m 5591.94,14704.8 c -9.91,-354 -289.22,-716.5 -1178.73,-716.5 -889.51,0 -1267.24,362.5 -1277.09,716.5 -1.44,51.6 2.86,101.9 12.5,150.3 1.02,5.4 2.2,10.7 3.36,16.1 l -0.07,-0.1 233.27,921.5 c 0,0 176.96,615.3 978.97,615.3 781.1,0 973.56,-594.7 973.56,-594.7 l 237.73,-939.7 0.85,-3.4 c 11.71,-52.9 17.25,-108.3 15.65,-165.3"
      style="fill: rgb(252, 210, 149); fill-opacity: 1; fill-rule: nonzero; stroke: none;" id="path1222" class="g-20">
    </path>
    <path
      d="m 5575.44,14873.5 c -39.63,78.7 -116.66,228.9 -193.79,365.9 -241.77,30.9 -423.96,109.8 -591.6,181.8 -322.87,138.7 -563.28,338.6 -681.7,497.7 l -0.45,0.4 c -163.8,-389.3 -646.03,-679.8 -781.92,-755.6 -91.07,-113.4 -175.16,-297.9 -174,-292.5 l -0.07,-0.1 233.27,921.5 c 0,0 176.96,615.3 978.97,615.3 781.1,0 973.56,-594.7 973.56,-594.7 l 237.73,-939.7"
      style="fill: rgb(224, 159, 113); fill-opacity: 1; fill-rule: nonzero; stroke: none;" id="path1224" class="g-21">
    </path>
    <path
      d="m 4363.96,14110 c -697.69,0 -1148.22,269.9 -1227.84,594.8 9.85,-353.9 387.58,-716.5 1277.09,-716.5 889.51,0 1168.78,362.6 1178.7,716.5 -51.6,-286.2 -335.94,-594.8 -1227.95,-594.8"
      style="fill: rgb(224, 159, 113); fill-opacity: 1; fill-rule: nonzero; stroke: none;" id="path1226" class="g-22">
    </path>
    <path
      d="m 3432.98,14747.5 c -127.66,-6.6 -208.62,-65.6 -213.42,-125.1 -3.81,-47.2 39.18,-179.2 221.75,-172.9 210.01,7.3 276.58,312.8 -8.33,298"
      style="fill: rgb(247, 176, 166); fill-opacity: 1; fill-rule: nonzero; stroke: none;" id="path1228" class="g-23">
    </path>
    <path
      d="m 3378.47,14647.1 c -4.91,-3.4 -11.63,-2.8 -16.1,1.8 -5.14,5.3 -5.34,13.8 -0.43,19.1 26.8,28.8 61.2,55.5 62.66,56.6 5.61,4.4 13.76,3.1 18.08,-3 4.3,-6.1 3.18,-14.5 -2.49,-18.9 -0.34,-0.3 -34.25,-26.6 -59.6,-53.8 l -2.12,-1.8"
      style="fill: rgb(194, 92, 87); fill-opacity: 1; fill-rule: nonzero; stroke: none;" id="path1230" class="g-24">
    </path>
    <path
      d="m 3451.17,14638.6 c -5.03,-3.4 -11.92,-2.7 -16.34,2.1 -5,5.4 -4.96,13.9 0.1,19.1 25.5,25.8 54.35,48.1 55.57,49.1 5.52,4.5 13.76,3 18.06,-3 4.29,-6.1 3.16,-14.6 -2.52,-18.9 -0.28,-0.3 -28.74,-22.3 -52.99,-46.9 l -1.88,-1.5"
      style="fill: rgb(194, 92, 87); fill-opacity: 1; fill-rule: nonzero; stroke: none;" id="path1232" class="g-25">
    </path>
    <path
      d="m 5338.79,14748.1 c -127.99,-2.2 -213.3,-58.3 -222.54,-117.6 -7.33,-47 25.75,-180.3 208.58,-180.3 210.25,0 299.54,302.7 13.96,297.9"
      style="fill: rgb(247, 176, 166); fill-opacity: 1; fill-rule: nonzero; stroke: none;" id="path1234" class="g-26">
    </path>
    <path
      d="m 5241.63,14649.7 c -5.15,-3.2 -11.82,-2.4 -15.94,2.4 -4.76,5.4 -4.32,14 0.98,19.1 28.89,27.8 65.23,53.2 66.77,54.3 5.93,4.2 13.97,2.6 17.82,-3.6 3.85,-6.2 2.11,-14.6 -3.88,-18.8 -0.36,-0.3 -36.17,-25.4 -63.5,-51.7 l -2.25,-1.7"
      style="fill: rgb(194, 92, 87); fill-opacity: 1; fill-rule: nonzero; stroke: none;" id="path1236" class="g-27">
    </path>
    <path
      d="m 5313.61,14638.7 c -5.28,-3.3 -12.1,-2.3 -16.16,2.6 -4.6,5.6 -3.92,14.1 1.51,19.1 27.38,24.9 57.84,46.2 59.13,47.1 5.84,4.3 13.97,2.6 17.81,-3.6 3.84,-6.2 2.09,-14.6 -3.91,-18.8 -0.3,-0.2 -30.34,-21.2 -56.39,-44.9 l -1.99,-1.5"
      style="fill: rgb(194, 92, 87); fill-opacity: 1; fill-rule: nonzero; stroke: none;" id="path1238" class="g-28">
    </path>
    <path
      d="m 4017.53,15549.1 c -178.32,77.1 -465.06,-1.7 -437.04,-47.6 9.47,-15.5 150.42,31.6 324.39,-21.1 52.79,-16 120.4,-46.8 187.45,-82.7 36.91,-19.8 14.25,112.9 -74.8,151.4"
      style="fill: rgb(224, 159, 113); fill-opacity: 1; fill-rule: nonzero; stroke: none;" id="path1240" class="g-29">
    </path>
    <path
      d="m 4011.1,15553.3 c -177.59,78.9 -419.76,-12 -413.64,-29.3 6.12,-17.2 133.54,33.4 307.6,-19.3 52.82,-16.1 110.23,-42.3 177.32,-78.3 36.94,-19.7 -5.84,97.9 -71.28,126.9"
      style="fill: rgb(83, 66, 48); fill-opacity: 1; fill-rule: nonzero; stroke: none;" id="path1242" class="g-30">
    </path>
    <path
      d="m 4712.27,15538.6 c 184.01,62.3 463.39,-39.6 431.71,-83 -10.69,-14.7 -147.33,43.7 -325.03,5.3 -53.92,-11.6 -123.81,-36.8 -193.56,-67.1 -38.41,-16.7 -5.01,113.7 86.88,144.8"
      style="fill: rgb(224, 159, 113); fill-opacity: 1; fill-rule: nonzero; stroke: none;" id="path1244" class="g-31">
    </path>
    <path
      d="m 4719.02,15542.3 c 183.44,64.2 417.39,-46.3 409.88,-62.9 -7.5,-16.7 -130.37,44.1 -308.16,5.7 -53.94,-11.6 -113.3,-33.1 -183.09,-63.5 -38.43,-16.7 13.78,97.1 81.37,120.7"
      style="fill: rgb(83, 66, 48); fill-opacity: 1; fill-rule: nonzero; stroke: none;" id="path1246" class="g-32">
    </path>
    <path
      d="m 3687.38,14646 c -141.2,29.9 -149.94,220.5 -106.59,396.6 40.64,165.1 130.68,325.2 274.97,341 162.16,17.8 249.92,-163.5 252.49,-370.3 2.54,-204.9 -95.97,-436 -420.87,-367.3"
      style="fill: rgb(224, 159, 113); fill-opacity: 1; fill-rule: nonzero; stroke: none;" id="path1248" class="g-33">
    </path>
    <path
      d="m 3708.37,14684.8 c -129.34,27.4 -137.21,202.1 -97.4,363.4 37.29,151.1 119.76,297.6 251.78,312 148.35,16.3 228.69,-149.5 231.1,-338.8 2.39,-187.6 -87.81,-399.6 -385.48,-336.6"
      style="fill: rgb(251, 251, 251); fill-opacity: 1; fill-rule: nonzero; stroke: none;" id="path1250" class="g-34">
    </path>
    <path
      d="m 3880.88,14964.3 c 62.5,-40.8 122.7,-91.6 168.09,-153.3 32.97,62.3 45.8,138.2 44.88,210.4 -2.41,189.3 -82.75,355.1 -231.1,338.8 -122.86,-13.4 -202.82,-141.3 -243.37,-280.8 91.76,-21.7 181.06,-62.6 261.5,-115.1"
      style="fill: rgb(195, 195, 188); fill-opacity: 1; fill-rule: nonzero; stroke: none;" id="path1252" class="g-35">
    </path>
    <path
      d="m 3821.1,14721.6 c -78.52,17.1 -80.83,139.2 -54.3,252.5 24.79,105.9 76.91,209.1 157.29,221.3 90.32,13.8 137.12,-100.2 136.3,-232.1 -0.81,-131.1 -58.45,-281.1 -239.29,-241.7"
      style="fill: rgb(51, 36, 23); fill-opacity: 1; fill-rule: nonzero; stroke: none;" id="path1254" class="g-36">
    </path>
    <path d="m 3878.21,15174.8 c -77.75,-0.6 -163.46,-100.3 -60.27,-137.7 103.01,-37.4 167.63,138.4 60.27,137.7"
      style="fill: rgb(251, 251, 251); fill-opacity: 1; fill-rule: nonzero; stroke: none;" id="path1256" class="g-37">
    </path>
    <path
      d="m 3606.47,15030 c -28.3,8.3 17.63,137.1 55.78,201.8 42.49,72.2 106.31,142.8 197.71,152.8 64.88,7.1 124.21,-21.5 165.91,-75.2 32.69,-42 53.28,-118.5 43.46,-121.7 -9.81,-3.2 -45.62,147.2 -206.63,132.9 -177.71,-15.6 -254.44,-291.1 -256.23,-290.6"
      style="fill: rgb(87, 49, 23); fill-opacity: 1; fill-rule: nonzero; stroke: none;" id="path1258" class="g-38">
    </path>
    <path
      d="m 5069.31,14651.7 c 139.39,29.2 150.56,216.9 110.27,390.3 -37.78,162.6 -124.22,320.2 -266.01,336 -159.34,17.7 -248.17,-160.6 -253.52,-364.1 -5.3,-201.7 88.52,-429.5 409.26,-362.2"
      style="fill: rgb(224, 159, 113); fill-opacity: 1; fill-rule: nonzero; stroke: none;" id="path1260" class="g-39">
    </path>
    <path
      d="m 5052.03,14684 c 129.71,27.3 139.99,201.9 102.41,363.3 -35.21,151.2 -115.64,297.7 -247.45,312.4 -148.11,16.5 -230.73,-149.3 -235.75,-338.6 -4.98,-187.6 82.29,-399.7 380.79,-337.1"
      style="fill: rgb(251, 251, 251); fill-opacity: 1; fill-rule: nonzero; stroke: none;" id="path1262" class="g-40">
    </path>
    <path
      d="m 4883.4,14963.8 c -63.06,-40.7 -123.95,-91.5 -170.19,-153.1 -32.11,62.4 -43.89,138.2 -41.97,210.4 5.02,189.3 87.64,355.1 235.75,338.6 122.67,-13.6 200.85,-141.6 239.47,-281.2 -92.05,-21.6 -181.9,-62.3 -263.06,-114.7"
      style="fill: rgb(195, 195, 188); fill-opacity: 1; fill-rule: nonzero; stroke: none;" id="path1264" class="g-41">
    </path>
    <path
      d="m 5157.03,15030 c 28.39,8.3 -16.03,137.1 -53.42,201.8 -41.64,72.2 -104.65,142.8 -195.92,152.8 -64.8,7.1 -124.47,-21.5 -166.79,-75.2 -33.19,-42 -54.66,-118.5 -44.89,-121.7 9.77,-3.2 47.34,147.2 208.19,132.9 177.52,-15.6 251.03,-291.1 252.83,-290.6"
      style="fill: rgb(87, 49, 23); fill-opacity: 1; fill-rule: nonzero; stroke: none;" id="path1266" class="g-42">
    </path>
    <path
      d="m 4939.82,14721 c 78.75,16.9 82.75,139.1 57.79,252.4 -23.33,106 -74.03,209.2 -154.23,221.6 -90.12,13.8 -138.48,-100.1 -139.49,-232 -1,-131.1 54.57,-281.2 235.93,-242"
      style="fill: rgb(51, 36, 23); fill-opacity: 1; fill-rule: nonzero; stroke: none;" id="path1268" class="g-43">
    </path>
    <path d="m 4802.85,15170.7 c -77.85,-9.6 -164.94,-119.2 -62.18,-144.7 102.65,-25.5 169.72,157.9 62.18,144.7"
      style="fill: rgb(251, 251, 251); fill-opacity: 1; fill-rule: nonzero; stroke: none;" id="path1270" class="g-44">
    </path>
    <path
      d="m 4309.22,14743.1 c -0.02,19.3 13.62,75 49.27,66.3 35.62,-8.7 62.97,-54.8 46.52,-69.1 -16.43,-14.4 -95.77,-11.5 -95.79,2.8"
      style="fill: rgb(224, 159, 113); fill-opacity: 1; fill-rule: nonzero; stroke: none;" id="path1272" class="g-45">
    </path>
    <path
      d="m 4370.71,14305.4 c -215.43,0 -269.46,165.5 -278.19,202.7 -7.95,34 -6.23,70.3 41.25,77.4 15.75,2.4 35.4,-0.6 52.85,-61.6 13.16,-46.1 70,-140.6 196.27,-133.1 148.35,8.8 180.27,141.9 181.07,157.1 0.91,17.2 4.36,45.8 32.09,57.3 34.17,14.1 56.82,-32.5 55,-67.5 -0.13,-2.4 -16.06,-221 -263.76,-231.9 -5.64,-0.3 -11.17,-0.4 -16.58,-0.4"
      style="fill: rgb(224, 159, 113); fill-opacity: 1; fill-rule: nonzero; stroke: none;" id="path1274" class="g-46">
    </path>
    <path
      d="m 4371.13,14357.1 c -196.23,0 -245.61,157.6 -253.66,189.9 -2.7,10.9 3.33,22 13.46,24.9 10.15,2.9 20.55,-3.6 23.25,-14.4 6.95,-28 50.58,-189.5 231.27,-181.9 190.27,7.9 201.24,188.6 201.61,195.3 0.63,11.2 9.41,19.8 20.1,19.1 10.47,-0.7 18.46,-10.3 17.84,-21.5 -0.12,-2 -13.8,-201.8 -238.07,-211.1 -5.37,-0.2 -10.64,-0.3 -15.8,-0.3"
      style="fill: rgb(141, 84, 72); fill-opacity: 1; fill-rule: nonzero; stroke: none;" id="path1276" class="g-47">
    </path>
    <path
      d="M 4055.22 16020.9 C 4174.03 15861.1 4415.25 15660.2 4738.93 15521 C 4950 15430.2 5276.53 15336.9 5575.89 15329 C 5575.89 15329 5541.78 15929.7 5174.88 16261.8 C 4821.58 16581.5 4199.42 16701 4006.9 16451.3 C 3832.18 16315.2 3930.33 16124.7 4055.22 16020.9"
      style="fill: rgb(83, 66, 48); fill-opacity: 1; fill-rule: nonzero; stroke: none;" id="path1278" class="g-48">
    </path>
    <path
      d="m 5304.68,16038.1 c 125.27,-84.8 257.9,-479 519.49,-464.3 -106.85,-84.7 -338.96,-40.5 -427.38,88.5 0,0 -110.53,268.9 -92.11,375.8"
      style="fill: rgb(83, 66, 48); fill-opacity: 1; fill-rule: nonzero; stroke: none;" id="path1280" class="g-49">
    </path>
    <path
      d="m 4144.93,16507.3 c 0,0 -348.6,106 -688.69,-296.8 -334.18,-395.8 -213.29,-968 -213.29,-968 0,0 799.84,409.8 869.47,961.9 l 32.51,302.9"
      style="fill: rgb(83, 66, 48); fill-opacity: 1; fill-rule: nonzero; stroke: none;" id="path1282" class="g-50">
    </path>
    <path
      d="m 3691.26,16407.5 c -133.49,-47.7 -345.78,-374.8 -579.87,-300.5 77.27,-101.8 298.34,-115.7 408.67,-19.3 0,0 163.04,218.5 171.2,319.8"
      style="fill: rgb(83, 66, 48); fill-opacity: 1; fill-rule: nonzero; stroke: none;" id="path1284" class="g-51">
    </path>
    <path d="m 3273.37,15818.3 c 0,0 -235.29,-449.9 -115.64,-902.9 0,0 82.48,362.5 259.15,567.7 l -143.51,335.2"
      style="fill: rgb(83, 66, 48); fill-opacity: 1; fill-rule: nonzero; stroke: none;" id="path1286" class="g-52">
    </path>
    <path d="m 5463.8,15702.3 c 0,0 217.57,-333.9 97.92,-786.9 0,0 -82.48,362.5 -259.15,567.7 l 161.23,219.2"
      style="fill: rgb(83, 66, 48); fill-opacity: 1; fill-rule: nonzero; stroke: none;" id="path1288" class="g-53">
    </path>
    <path
      d="m 5561.58,15218.8 c 2.19,66.6 -93.96,198.8 -118.4,217.9 -12.27,10.5 -231.72,102.6 -374.16,201.3 -114.44,79.2 -184.71,172.8 -196.55,170.5 -14.7,-3 29.56,-93.3 97.09,-170.5 67.53,-77.3 158.33,-141.4 144.45,-137.4 -239.13,70.3 -480.37,158.7 -672.53,300.8 -281.8,208.4 -347.19,429.1 -362.31,423.9 -41.93,-23.2 -183.53,-492.6 -648.86,-712.8 -23.82,-11.3 -11.84,108.9 56.83,255.7 58.63,125.3 170.51,202.5 152.74,216.7 -28.85,12.6 -156.58,-120.7 -245.09,-275.9 -53.13,-93.1 -67.92,-213.8 -106.57,-260.5 -184.85,-223.1 -130.67,-532.4 -130.49,-533.1 0,0 39.26,172.5 121.61,346.9 136.51,76.4 619.02,368.1 782.93,758.9 234.84,-328.7 831.22,-624.3 1335.93,-677.4 110.99,-197.6 163.52,-428.4 163.52,-428.4 23,99.9 13.66,214.2 -0.14,303.4"
      style="fill: rgb(65, 49, 39); fill-opacity: 1; fill-rule: nonzero; stroke: none;" id="path1290" class="g-54">
    </path>
    <path
      d="m 5360.89,15631.5 c 26.64,12.4 -78.68,263.4 -258.76,440.8 -108.05,106.4 -312.54,216.9 -355.17,202.7 -39.07,-17.8 50.92,11.8 317.33,-265.2 216.57,-225.3 280.61,-387.2 296.6,-378.3"
      style="fill: rgb(65, 49, 39); fill-opacity: 1; fill-rule: nonzero; stroke: none;" id="path1292" class="g-55">
    </path>
    <path
      d="m 3721.79,16366.7 c -100.89,-11.9 -176.86,-111.2 -253.44,-210.2 -76.58,-99 -78.09,-191.4 77.3,-82.5 155.39,108.9 258.5,302.4 176.14,292.7"
      style="fill: rgb(143, 126, 101); fill-opacity: 1; fill-rule: nonzero; stroke: none;" id="path1294" class="g-56">
    </path>
    <path
      d="m 3621.91,16105.8 c 25.21,22 111.31,94.7 125.52,75.8 14.2,-19 -82.89,-109 -116.04,-111.4 -33.15,-2.3 -28.42,19 -9.48,35.6"
      style="fill: rgb(143, 126, 101); fill-opacity: 1; fill-rule: nonzero; stroke: none;" id="path1296" class="g-57">
    </path>
    <path
      d="m 4486.98,16463.9 c -6.32,0 -12.79,0.2 -19.45,0.5 -123.14,7.1 -222.6,73.4 -137.35,97.1 8.16,2.3 32.66,3.6 64.11,3.6 68.78,0 170.84,-6.3 208.22,-22.5 51.52,-22.4 -5.04,-78.7 -115.53,-78.7"
      style="fill: rgb(107, 90, 69); fill-opacity: 1; fill-rule: nonzero; stroke: none;" id="path1298" class="g-58">
    </path>
    <path
      d="m 4313.6,16069 c 45,-111.3 172.87,-177.6 208.39,-161.1 35.52,16.6 -42.62,82.9 -30.78,104.2 11.84,21.3 56.83,-11.8 87.62,-9.4 30.78,2.3 14.93,44.6 -14.21,92.3 -26.05,42.6 37.89,-37.9 80.52,0 21.38,19 -78.15,108.9 -113.68,90 -37.66,-20.1 30.79,-85.3 33.16,-113.7 2.37,-28.4 -138.66,110 -151.56,49.8 -7.1,-33.2 25.57,-55.1 14.21,-56.9 -35.02,-5.5 -137.07,62.7 -113.67,4.8"
      style="fill: rgb(143, 126, 101); fill-opacity: 1; fill-rule: nonzero; stroke: none;" id="path1300" class="g-59">
    </path>
    <path
      d="m 4072.06,16336.6 c -9.63,11.2 1.34,63.2 52.1,104.2 30.45,24.5 94.72,28.4 132.61,9.4 11.41,-5.7 -74.51,-25.3 -108.93,-54.4 -30.79,-26.1 -61.57,-75.8 -75.78,-59.2"
      style="fill: rgb(65, 49, 39); fill-opacity: 1; fill-rule: nonzero; stroke: none;" id="path1302" class="g-60">
    </path>
    <path
      d="m 4086.27,16315.2 c 20.12,25.2 76.36,39.5 80.51,28.5 7.11,-19 -59.2,-75.8 -78.14,-68.7 -18.95,7.1 -11.84,28.4 -2.37,40.2"
      style="fill: rgb(65, 49, 39); fill-opacity: 1; fill-rule: nonzero; stroke: none;" id="path1304" class="g-61">
    </path>
    <path
      d="m 5145.99,13663.3 c 4.18,4.9 51.41,-18.2 51.41,-18.2 0,0 70.81,-61.5 110.7,-137.8 21.12,-40.5 98.25,-150.9 182.93,-273.3 75.15,-108.6 193.55,-258.6 213.9,-360.4 -21.77,-65.3 -84.33,-157 -130.86,-165.7 -90.46,-3.5 -231.91,94.5 -256.36,133.5 -43.75,69.6 -91.01,143.7 -108.81,167.4 -36.51,48.6 -193.2,205.1 -193.2,205.1 0,0 19.87,317.7 130.29,449.4"
      style="fill: rgb(74, 66, 56); fill-opacity: 1; fill-rule: nonzero; stroke: none;" id="path1306" class="g-62">
    </path>
    <path
      d="m 5135.57,13560.9 c 0,0 61.89,-214.7 57.53,-246.7 -5.98,-43.8 -93.88,-138.8 -88.7,-157 1.14,-4 175.81,-103.9 184.31,-128.7 17.93,-52.3 25.13,-167.9 25.13,-167.9 -35.91,54.2 -84.28,125.3 -117.83,167.2 -12.84,16 -187.86,153.1 -194.85,157 l 46.53,174.5 87.88,201.6"
      style="fill: rgb(50, 44, 36); fill-opacity: 1; fill-rule: nonzero; stroke: none;" id="path1308" class="g-63">
    </path>
    <path
      d="m 5410.42,13344.4 c 0,0 -82.39,124.7 -89.77,134.7 -7.38,10 -38.09,64.7 -49.46,78.1 -11.38,13.4 -58.45,83.2 -94.4,92.6 0,0 0.66,-20.1 1.7,-45.1 0,0 30.2,-24.5 55.14,-53.6 19.48,-22.8 99.36,-125.9 176.79,-206.7"
      style="fill: rgb(50, 44, 36); fill-opacity: 1; fill-rule: nonzero; stroke: none;" id="path1310" class="g-64">
    </path>
    <path
      d="m 3636.42,13663.3 c -4.17,4.9 -51.41,-18.2 -51.41,-18.2 0,0 -70.81,-61.5 -110.69,-137.8 -21.13,-40.5 -98.26,-150.9 -182.94,-273.3 -75.15,-108.6 -193.54,-258.6 -213.9,-360.4 21.77,-65.3 84.34,-157 130.86,-165.7 90.46,-3.5 231.91,94.5 256.37,133.5 43.75,69.6 91,143.7 108.81,167.4 36.5,48.6 193.19,205.1 193.19,205.1 0,0 -19.86,317.7 -130.29,449.4"
      style="fill: rgb(74, 66, 56); fill-opacity: 1; fill-rule: nonzero; stroke: none;" id="path1312" class="g-65">
    </path>
    <path
      d="m 3646.84,13560.9 c 0,0 -61.89,-214.7 -57.53,-246.7 5.98,-43.8 93.88,-138.8 88.7,-157 -1.14,-4 -175.8,-103.9 -184.3,-128.7 -17.93,-52.3 -25.14,-167.9 -25.14,-167.9 35.91,54.2 84.28,125.3 117.84,167.2 12.83,16 187.85,153.1 194.84,157 l -46.53,174.5 -87.88,201.6"
      style="fill: rgb(50, 44, 36); fill-opacity: 1; fill-rule: nonzero; stroke: none;" id="path1314" class="g-66">
    </path>
    <path
      d="m 3372,13344.4 c 0,0 82.38,124.7 89.76,134.7 7.38,10 38.09,64.7 49.47,78.1 11.37,13.4 58.44,83.2 94.39,92.6 0,0 -0.65,-20.1 -1.7,-45.1 0,0 -30.2,-24.5 -55.14,-53.6 -19.47,-22.8 -99.36,-125.9 -176.78,-206.7"
      style="fill: rgb(50, 44, 36); fill-opacity: 1; fill-rule: nonzero; stroke: none;" id="path1316" class="g-67">
    </path>
    <path
      d="m 5164.25,13670 c -107.5,114.2 -293.29,192.9 -581.06,218 -102.59,-99 -194.2,-92.5 -194.2,-92.5 -78.52,4.4 -187.65,92.4 -187.65,92.4 -281.04,-24.5 -464.74,-100.3 -573.2,-210.3 -15.49,-15.7 68.49,-405.9 69.07,-410.5 0,0 102.52,-317.9 136.87,-544.8 46.59,-103.9 150.75,-172.6 461.13,-178.8 24.05,-0.4 65.2,-34.8 91.6,-34.8 61.08,-2.2 93.58,38.6 133.05,41.4 280.12,20 408.66,126.4 436.6,221.3 6.93,254 131.43,495.7 131.43,495.7 27.41,203.4 88.98,389.5 76.36,402.9"
      style="fill: rgb(251, 251, 251); fill-opacity: 1; fill-rule: nonzero; stroke: none;" id="path1318" class="g-68">
    </path>
    <path
      d="m 4264.67,13736.6 c 0,-6.5 47.99,-194.1 47.99,-194.1 l -52.35,-835.4 c 0,0 109.06,-130.8 143.95,-133 34.9,-2.2 150.5,161.4 150.5,161.4 0,0 -56.71,776.5 -54.53,793.9 2.18,17.5 82.88,207.2 82.88,207.2 l -126.5,61.1 -128.69,-2.2 -63.25,-58.9"
      style="fill: rgb(195, 195, 188); fill-opacity: 1; fill-rule: nonzero; stroke: none;" id="path1320" class="g-69">
    </path>
    <path
      d="m 4639.82,13901.7 c -40.89,20.4 -74.78,53.5 -85.06,54.5 -15.23,-4.4 -6.95,-103.4 -167.22,-161.4 -153.68,52.6 -149.08,157 -164.31,161.4 -10.29,-1 -44.17,-34.1 -85.07,-54.5 -30.53,-15.3 -80.69,-50.2 -80.69,-50.2 0,0 80.69,-237.7 220.29,-275.6 16.76,-4.5 31.46,98.2 109.05,176.7 77.63,-78.5 101.14,-178.7 117.78,-173.7 124.33,37 215.93,272.6 215.93,272.6 0,0 -50.16,34.9 -80.7,50.2"
      style="fill: rgb(195, 195, 188); fill-opacity: 1; fill-rule: nonzero; stroke: none;" id="path1322" class="g-70">
    </path>
    <path
      d="m 4332.29,13638.5 c -0.19,-8.2 -60.85,-861.3 -61.41,-885.7 -0.55,-24.5 105.76,-146.7 116.66,-146.7 10.91,0 112.38,122.3 119.23,135.9 6.85,13.6 -54.71,888.3 -54.71,888.3 l -119.77,8.2"
      style="fill: rgb(224, 53, 39); fill-opacity: 1; fill-rule: nonzero; stroke: none;" id="path1324" class="g-71">
    </path>
    <path
      d="m 4326.84,13545.8 c 34.26,-34.6 89.08,-45.1 132.83,-24.8 -4.6,66.6 -7.61,109.3 -7.61,109.3 l -119.77,8.2 c -0.04,-1.6 -2.48,-36.7 -6.34,-92 l 0.89,-0.7"
      style="fill: rgb(171, 30, 24); fill-opacity: 1; fill-rule: nonzero; stroke: none;" id="path1326" class="g-72">
    </path>
    <path
      d="m 4282.85,13714.1 c 0,0 31.98,-154.2 42.16,-162.9 10.18,-8.7 130.87,-7.3 136.69,0 5.81,7.3 43.62,218.1 43.62,218.1 l -119.6,28.4 -97.06,-34.2 -5.81,-49.4"
      style="fill: rgb(224, 53, 39); fill-opacity: 1; fill-rule: nonzero; stroke: none;" id="path1328" class="g-73">
    </path>
    <path
      d="m 4282.85,13714.1 c 0,0 9.95,-48 20.52,-91.9 0,0 61.63,115.9 68.9,115.9 7.27,0 63.25,-48.7 104.6,-120.7 12.72,64.2 28.45,151.9 28.45,151.9 l -119.6,28.4 -97.06,-34.2 -5.81,-49.4"
      style="fill: rgb(171, 30, 24); fill-opacity: 1; fill-rule: nonzero; stroke: none;" id="path1330" class="g-74">
    </path>
    <path
      d="m 4223.23,13985.3 c 15.27,-4.4 9.81,-135.3 164.67,-187.6 -78.52,-78.5 -97.78,-194.8 -114.51,-189.8 -124.32,37.1 -215.92,272.7 -215.92,272.7 0,0 50.16,34.9 80.69,50.1 40.9,20.5 74.78,53.6 85.07,54.6"
      style="fill: rgb(251, 251, 251); fill-opacity: 1; fill-rule: nonzero; stroke: none;" id="path1332" class="g-75">
    </path>
    <path
      d="m 4108.72,13789 c 17.45,35.9 50.17,70.9 73.07,101.4 7.16,9.5 24.57,36.6 35.98,32.7 12.87,-4.4 27.8,-52.5 38.18,-61.1 19.59,-16.1 43.43,-35.5 66.36,-47.1 20.36,-10.4 42.79,-14.5 65.3,-17.5 l 0.29,0.3 c -154.86,52.3 -149.4,183.2 -164.67,187.6 -10.29,-1 -44.17,-34.1 -85.07,-54.6 -27.7,-13.8 -71.44,-43.7 -79.33,-49.2 0,0 41.17,-93.6 49.89,-92.5"
      style="fill: rgb(195, 195, 188); fill-opacity: 1; fill-rule: nonzero; stroke: none;" id="path1334" class="g-76">
    </path>
    <path
      d="m 4554.76,13985.3 c -15.27,-4.4 -7.64,-129.8 -169.04,-187.6 78.52,-78.5 102.15,-194.8 118.87,-189.8 124.33,37.1 215.93,272.7 215.93,272.7 0,0 -50.16,34.9 -80.7,50.1 -40.89,20.5 -74.78,53.6 -85.06,54.6"
      style="fill: rgb(251, 251, 251); fill-opacity: 1; fill-rule: nonzero; stroke: none;" id="path1336" class="g-77">
    </path>
    <path
      d="m 4516.95,13844.9 c 33.28,30.8 22.8,50.9 36.36,85.8 4.06,10.5 43.74,-64 66.88,-72.7 11.64,-4.3 100.33,22.6 100.33,22.6 0,0 -50.16,34.9 -80.7,50.1 -40.89,20.5 -74.78,53.6 -85.06,54.6 -15.27,-4.4 -4.36,-130.2 -169.04,-187.6 1.89,-1.9 93.43,12.3 131.23,47.2"
      style="fill: rgb(195, 195, 188); fill-opacity: 1; fill-rule: nonzero; stroke: none;" id="path1338" class="g-78">
    </path>
    <path
      d="m 3641.6,11942.3 c -17.56,19 100.33,730.7 100.33,730.7 0,0 -29.08,27.6 -26.17,47.9 2.9,20.4 33.44,81.5 33.44,81.5 l -1.46,263.2 -157.27,529.5 -3.89,13.2 -8.96,30.2 c 119.23,167.2 449.31,261.7 449.31,261.7 l 61.07,-279.2 105.56,-690.9 c 0,0 23.85,-1077.2 13.67,-1083.1 -10.17,-5.8 -539.46,66.9 -565.63,95.3"
      style="fill: rgb(74, 66, 56); fill-opacity: 1; fill-rule: nonzero; stroke: none;" id="path1340" class="g-79">
    </path>
    <path
      d="m 3855.71,13470.5 c 61.07,10.9 164.68,1.1 196.3,-4.3 0,0 -118,-140.1 -119.96,-153.8 -1.96,-13.7 261.93,-416.6 261.93,-416.6 l -0.43,34.3 -105.55,690.9 -61.07,279.2 c 0,0 -18.35,-5.3 -47.93,-15.5 -10.51,-34.7 -162.05,-421.1 -123.29,-414.2"
      style="fill: rgb(50, 44, 36); fill-opacity: 1; fill-rule: nonzero; stroke: none;" id="path1342" class="g-80">
    </path>
    <path
      d="m 4090.18,13950.4 c 8.73,-13.1 58.82,-625.7 103.37,-1020.3 -7.4,-4.9 -223.33,381.2 -227.69,407.4 -4.37,26.1 130.86,165.7 130.86,165.7 0,0 -183.21,17.5 -213.75,13.1 -30.53,-4.3 103.25,382.5 103.25,382.5 0,0 95.24,64.6 103.96,51.6"
      style="fill: rgb(99, 92, 83); fill-opacity: 1; fill-rule: nonzero; stroke: none;" id="path1344" class="g-81">
    </path>
    <path
      d="m 3765.2,13193.5 c 0,0 -45.81,152.7 -45.81,191.9 0,39.3 19.63,146.2 41.44,139.6 21.81,-6.5 17.45,-285.7 4.37,-331.5"
      style="fill: rgb(85, 76, 67); fill-opacity: 1; fill-rule: nonzero; stroke: none;" id="path1346" class="g-82">
    </path>
    <path
      d="m 5144.73,11942.3 c 17.56,19 -100.33,730.7 -100.33,730.7 0,0 29.08,27.6 26.18,47.9 -2.91,20.4 -33.45,81.5 -33.45,81.5 l 1.45,263.2 157.28,529.5 3.9,13.2 8.95,30.2 c -119.23,167.2 -449.31,261.7 -449.31,261.7 l -61.07,-279.2 -105.57,-690.9 c 0,0 -23.84,-1077.2 -13.66,-1083.1 10.18,-5.8 539.46,66.9 565.63,95.3"
      style="fill: rgb(74, 66, 56); fill-opacity: 1; fill-rule: nonzero; stroke: none;" id="path1348" class="g-83">
    </path>
    <path
      d="m 4930.62,13470.5 c -61.07,10.9 -164.67,1.1 -196.3,-4.3 0,0 118,-140.1 119.96,-153.8 1.96,-13.7 -261.94,-416.6 -261.94,-416.6 l 0.44,34.3 105.55,690.9 61.07,279.2 c 0,0 18.35,-5.3 47.93,-15.5 10.51,-34.7 162.05,-421.1 123.29,-414.2"
      style="fill: rgb(50, 44, 36); fill-opacity: 1; fill-rule: nonzero; stroke: none;" id="path1350" class="g-84">
    </path>
    <path
      d="m 4696.15,13950.4 c -8.72,-13.1 -58.82,-625.7 -103.37,-1020.3 7.4,-4.9 223.33,381.2 227.69,407.4 4.36,26.1 -130.86,165.7 -130.86,165.7 0,0 183.21,17.5 213.74,13.1 30.54,-4.3 -103.23,382.5 -103.23,382.5 0,0 -95.25,64.6 -103.97,51.6"
      style="fill: rgb(99, 92, 83); fill-opacity: 1; fill-rule: nonzero; stroke: none;" id="path1352" class="g-85">
    </path>
    <path
      d="m 5021.14,13193.5 c 0,0 45.8,152.7 45.8,191.9 0,39.3 -19.63,146.2 -41.44,139.6 -21.81,-6.5 -17.45,-285.7 -4.36,-331.5"
      style="fill: rgb(85, 76, 67); fill-opacity: 1; fill-rule: nonzero; stroke: none;" id="path1354" class="g-86">
    </path>
  </g>
  <path
    d="M 530.47 1128.925 L 530.47 1051.192 C 530.47 1049.298 528.941 1047.778 527.053 1047.778 C 525.166 1047.778 523.637 1049.298 523.637 1051.192 L 523.637 1128.925 C 523.637 1130.818 525.166 1132.338 527.053 1132.338 C 528.941 1132.338 530.47 1130.818 530.47 1128.925 Z M 514.33 1128.925 L 514.33 1051.192 C 514.33 1049.298 512.801 1047.778 510.914 1047.778 C 509.026 1047.778 507.497 1049.298 507.497 1051.192 L 507.497 1128.925 C 507.497 1130.818 509.026 1132.338 510.914 1132.338 C 512.801 1132.338 514.33 1130.818 514.33 1128.925 Z M 498.191 1128.925 L 498.191 1051.192 C 498.191 1049.298 496.661 1047.778 494.774 1047.778 C 492.887 1047.778 491.357 1049.298 491.357 1051.192 L 491.357 1128.925 C 491.357 1130.818 492.887 1132.338 494.774 1132.338 C 496.661 1132.338 498.191 1130.818 498.191 1128.925 Z M 482.051 1128.925 L 482.051 1051.192 C 482.051 1049.298 480.521 1047.778 478.634 1047.778 C 476.747 1047.778 475.218 1049.298 475.218 1051.192 L 475.218 1128.925 C 475.218 1130.818 476.747 1132.338 478.634 1132.338 C 480.521 1132.338 482.051 1130.818 482.051 1128.925 Z M 465.911 1128.925 L 465.911 1051.192 C 465.911 1049.298 464.382 1047.778 462.494 1047.778 C 460.607 1047.778 459.078 1049.298 459.078 1051.192 L 459.078 1128.925 C 459.078 1130.818 460.607 1132.338 462.494 1132.338 C 464.382 1132.338 465.911 1130.818 465.911 1128.925 Z M 449.771 1128.925 L 449.771 1051.192 C 449.771 1049.298 448.242 1047.778 446.355 1047.778 C 444.469 1047.778 442.938 1049.298 442.938 1051.192 L 442.938 1128.925 C 442.938 1130.818 444.469 1132.338 446.355 1132.338 C 448.242 1132.338 449.771 1130.818 449.771 1128.925 Z M 433.633 1128.925 L 433.633 1051.192 C 433.633 1049.298 432.102 1047.778 430.216 1047.778 C 428.329 1047.778 426.798 1049.298 426.798 1051.192 L 426.798 1128.925 C 426.798 1130.818 428.329 1132.338 430.216 1132.338 C 432.102 1132.338 433.633 1130.818 433.633 1128.925 Z M 417.493 1128.925 L 417.493 1051.192 C 417.493 1049.298 415.962 1047.778 414.076 1047.778 C 412.189 1047.778 410.66 1049.298 410.66 1051.192 L 410.66 1128.925 C 410.66 1130.818 412.189 1132.338 414.076 1132.338 C 415.962 1132.338 417.493 1130.818 417.493 1128.925 Z M 401.353 1128.925 L 401.353 1051.192 C 401.353 1049.298 399.824 1047.778 397.937 1047.778 C 396.049 1047.778 394.52 1049.298 394.52 1051.192 L 394.52 1128.925 C 394.52 1130.818 396.049 1132.338 397.937 1132.338 C 399.824 1132.338 401.353 1130.818 401.353 1128.925 Z M 385.214 1128.925 L 385.214 1051.192 C 385.214 1049.298 383.684 1047.778 381.797 1047.778 C 379.91 1047.778 378.381 1049.298 378.381 1051.192 L 378.381 1128.925 C 378.381 1130.818 379.91 1132.338 381.797 1132.338 C 383.684 1132.338 385.214 1130.818 385.214 1128.925 Z M 369.074 1128.925 L 369.074 1051.192 C 369.074 1049.298 367.545 1047.778 365.657 1047.778 C 363.77 1047.778 362.241 1049.298 362.241 1051.192 L 362.241 1128.925 C 362.241 1130.818 363.77 1132.338 365.657 1132.338 C 367.545 1132.338 369.074 1130.818 369.074 1128.925 Z M 352.934 1128.925 L 352.934 1051.192 C 352.934 1049.298 351.405 1047.778 349.518 1047.778 C 347.632 1047.778 346.101 1049.298 346.101 1051.192 L 346.101 1128.925 C 346.101 1130.818 347.632 1132.338 349.518 1132.338 C 351.405 1132.338 352.934 1130.818 352.934 1128.925 Z M 336.796 1128.925 L 336.796 1051.192 C 336.796 1049.298 335.265 1047.778 333.378 1047.778 C 331.492 1047.778 329.961 1049.298 329.961 1051.192 L 329.961 1128.925 C 329.961 1130.818 331.492 1132.338 333.378 1132.338 C 335.265 1132.338 336.796 1130.818 336.796 1128.925 Z M 320.656 1128.925 L 320.656 1051.192 C 320.656 1049.298 319.125 1047.778 317.239 1047.778 C 315.352 1047.778 313.823 1049.298 313.823 1051.192 L 313.823 1128.925 C 313.823 1130.818 315.352 1132.338 317.239 1132.338 C 319.125 1132.338 320.656 1130.818 320.656 1128.925 Z M 304.516 1128.925 L 304.516 1051.192 C 304.516 1049.298 302.987 1047.778 301.1 1047.778 C 299.212 1047.778 297.683 1049.298 297.683 1051.192 L 297.683 1128.925 C 297.683 1130.818 299.212 1132.338 301.1 1132.338 C 302.987 1132.338 304.516 1130.818 304.516 1128.925 Z M 288.376 1128.925 L 288.376 1051.192 C 288.376 1049.298 286.847 1047.778 284.96 1047.778 C 283.073 1047.778 281.543 1049.298 281.543 1051.192 L 281.543 1128.925 C 281.543 1130.818 283.073 1132.338 284.96 1132.338 C 286.847 1132.338 288.376 1130.818 288.376 1128.925 Z M 272.237 1128.925 L 272.237 1051.192 C 272.237 1049.298 270.707 1047.778 268.82 1047.778 C 266.933 1047.778 265.403 1049.298 265.403 1051.192 L 265.403 1128.925 C 265.403 1130.818 266.933 1132.338 268.82 1132.338 C 270.707 1132.338 272.237 1130.818 272.237 1128.925 Z M 256.097 1128.925 L 256.097 1051.192 C 256.097 1049.298 254.567 1047.778 252.68 1047.778 C 250.793 1047.778 249.264 1049.298 249.264 1051.192 L 249.264 1128.925 C 249.264 1130.818 250.793 1132.338 252.68 1132.338 C 254.567 1132.338 256.097 1130.818 256.097 1128.925 Z M 239.959 1128.925 L 239.959 1051.192 C 239.959 1049.298 238.428 1047.778 236.541 1047.778 C 234.655 1047.778 233.124 1049.298 233.124 1051.192 L 233.124 1128.925 C 233.124 1130.818 234.655 1132.338 236.541 1132.338 C 238.428 1132.338 239.959 1130.818 239.959 1128.925 Z M 223.819 1128.925 L 223.819 1051.192 C 223.819 1049.298 222.288 1047.778 220.401 1047.778 C 218.515 1047.778 216.985 1049.298 216.985 1051.192 L 216.985 1128.925 C 216.985 1130.818 218.515 1132.338 220.401 1132.338 C 222.288 1132.338 223.819 1130.818 223.819 1128.925 Z M 207.679 1128.925 L 207.679 1051.192 C 207.679 1049.298 206.149 1047.778 204.263 1047.778 C 202.375 1047.778 200.845 1049.298 200.845 1051.192 L 200.845 1128.925 C 200.845 1130.818 202.375 1132.338 204.263 1132.338 C 206.149 1132.338 207.679 1130.818 207.679 1128.925 Z M 191.539 1128.925 L 191.539 1051.192 C 191.539 1049.298 190.01 1047.778 188.123 1047.778 C 186.236 1047.778 184.706 1049.298 184.706 1051.192 L 184.706 1128.925 C 184.706 1130.818 186.236 1132.338 188.123 1132.338 C 190.01 1132.338 191.539 1130.818 191.539 1128.925 Z M 175.4 1128.925 L 175.4 1051.192 C 175.4 1049.298 173.87 1047.778 171.983 1047.778 C 170.096 1047.778 168.566 1049.298 168.566 1051.192 L 168.566 1128.925 C 168.566 1130.818 170.096 1132.338 171.983 1132.338 C 173.87 1132.338 175.4 1130.818 175.4 1128.925 Z M 155.843 1132.338 C 153.956 1132.338 152.427 1130.818 152.427 1128.925 L 152.427 1051.192 C 152.427 1049.298 153.956 1047.778 155.843 1047.778 C 157.73 1047.778 159.26 1049.298 159.26 1051.192 L 159.26 1128.925 C 159.26 1130.818 157.73 1132.338 155.843 1132.338"
    style="fill: rgb(58, 99, 121); fill-opacity: 1; fill-rule: nonzero; stroke: none;" id="path1356" class="g-87">
  </path>
  <g style="">
    <path
      d="M 1387.262 982.152 C 1387.262 979.885 1385.476 978.032 1383.276 978.032 L 687.933 978.032 C 685.732 978.032 683.947 979.885 683.947 982.152 C 683.947 984.432 685.732 986.272 687.933 986.272 L 1383.276 986.272 C 1385.476 986.272 1387.262 984.432 1387.262 982.152 Z M 1387.262 911.285 C 1387.262 909.005 1385.476 907.165 1383.276 907.165 L 687.933 907.165 C 685.732 907.165 683.947 909.005 683.947 911.285 C 683.947 913.552 685.732 915.392 687.933 915.392 L 1383.276 915.392 C 1385.476 915.392 1387.262 913.552 1387.262 911.285 Z M 1387.262 840.405 C 1387.262 838.139 1385.476 836.285 1383.276 836.285 L 687.933 836.285 C 685.732 836.285 683.947 838.139 683.947 840.405 C 683.947 842.685 685.732 844.525 687.933 844.525 L 1383.276 844.525 C 1385.476 844.525 1387.262 842.685 1387.262 840.405 Z M 1387.262 769.526 C 1387.262 767.259 1385.476 765.419 1383.276 765.419 L 687.933 765.419 C 685.732 765.419 683.947 767.259 683.947 769.526 C 683.947 771.806 685.732 773.646 687.933 773.646 L 1383.276 773.646 C 1385.476 773.646 1387.262 771.806 1387.262 769.526 Z M 1387.262 698.659 C 1387.262 696.379 1385.476 694.539 1383.276 694.539 L 687.933 694.539 C 685.732 694.539 683.947 696.379 683.947 698.659 C 683.947 700.926 685.732 702.779 687.933 702.779 L 1383.276 702.779 C 1385.476 702.779 1387.262 700.926 1387.262 698.659 Z M 1387.262 627.779 C 1387.262 625.513 1385.476 623.673 1383.276 623.673 L 687.933 623.673 C 685.732 623.673 683.947 625.513 683.947 627.779 C 683.947 630.059 685.732 631.899 687.933 631.899 L 1383.276 631.899 C 1385.476 631.899 1387.262 630.059 1387.262 627.779 Z M 923.7 561.02 L 687.933 561.02 C 685.732 561.02 683.947 559.18 683.947 556.913 C 683.947 554.633 685.732 552.793 687.933 552.793 L 923.7 552.793 C 925.901 552.793 927.686 554.633 927.686 556.913 C 927.686 559.18 925.901 561.02 923.7 561.02"
      style="fill: rgb(58, 99, 121); fill-opacity: 1; fill-rule: nonzero; stroke: none;" id="path1358" class="g-88">
    </path>
    <text style="white-space: pre; fill: rgb(51, 51, 51); font-family: Arial, sans-serif; font-size: 96.6px;"
      x="1051.787" y="580.34">Matar</text>
  </g>
  <g style="">
    <path
      d="M 758.64 120.927 C 737.775 120.927 720.849 104.007 720.849 83.128 C 720.849 62.248 737.775 45.328 758.64 45.328 C 779.519 45.328 796.443 62.248 796.443 83.128 C 796.443 104.007 779.519 120.927 758.64 120.927 Z M 763.196 42.474 C 737.649 42.474 716.863 63.274 716.863 88.821 C 716.863 114.381 737.649 135.167 763.196 135.167 C 788.755 135.167 809.541 114.381 809.541 88.821 C 809.541 63.274 788.755 42.474 763.196 42.474"
      style="fill: rgb(37, 70, 84); fill-opacity: 1; fill-rule: nonzero; stroke: none;" id="path1364" class="g-89">
    </path>
    <path
      d="M 758.645 53.874 C 742.513 53.874 729.388 66.994 729.388 83.128 C 729.388 99.261 742.513 112.394 758.645 112.394 C 774.777 112.394 787.903 99.261 787.903 83.128 C 787.903 66.994 774.777 53.874 758.645 53.874 Z M 758.645 129.474 C 733.092 129.474 712.303 108.687 712.303 83.128 C 712.303 57.581 733.092 36.794 758.645 36.794 C 784.197 36.794 804.987 57.581 804.987 83.128 C 804.987 108.687 784.197 129.474 758.645 129.474"
      style="fill: rgb(172, 175, 175); fill-opacity: 1; fill-rule: nonzero; stroke: none;" id="path1366" class="g-90">
    </path>
    <path
      d="M 792.492 51.528 C 797.501 58.928 800.431 67.848 800.431 77.434 C 800.431 102.994 779.643 123.781 754.089 123.781 C 740.744 123.781 728.707 118.101 720.243 109.047 C 728.581 121.354 742.684 129.474 758.645 129.474 C 784.197 129.474 804.987 108.687 804.987 83.128 C 804.987 70.928 800.235 59.808 792.492 51.528"
      style="fill: rgb(113, 118, 118); fill-opacity: 1; fill-rule: nonzero; stroke: none;" id="path1368" class="g-91">
    </path>
    <path
      d="M 718.568 84.848 C 716.359 84.848 714.568 83.061 714.568 80.848 C 714.568 57.808 733.32 39.048 756.368 39.048 C 758.577 39.048 760.368 40.848 760.368 43.048 C 760.368 45.261 758.577 47.048 756.368 47.048 C 737.731 47.048 722.568 62.221 722.568 80.848 C 722.568 83.061 720.777 84.848 718.568 84.848"
      style="fill: rgb(237, 238, 238); fill-opacity: 1; fill-rule: nonzero; stroke: none;" id="path1370" class="g-92">
    </path>
  </g>
  <style>
    /***************************************************
 * Generated by SVG Artista on 7/25/2022, 4:23:07 AM
 * MIT license (https://opensource.org/licenses/MIT)
 * W. https://svgartista.net
 **************************************************/

    @-webkit-keyframes animate-svg-fill-1 {
      0% {
        fill: transparent;
      }

      100% {
        fill: rgb(0, 0, 0);
      }
    }

    @keyframes animate-svg-fill-1 {
      0% {
        fill: transparent;
      }

      100% {
        fill: rgb(0, 0, 0);
      }
    }

    .g-1 {
      -webkit-animation: animate-svg-fill-1 0.01s ease-in 0s both;
      animation: animate-svg-fill-1 0.01s ease-in 0s both;
    }

    @-webkit-keyframes animate-svg-fill-2 {
      0% {
        fill: transparent;
      }

      100% {
        fill: rgb(58, 129, 189);
      }
    }

    @keyframes animate-svg-fill-2 {
      0% {
        fill: transparent;
      }

      100% {
        fill: rgb(58, 129, 189);
      }
    }

    .g-2 {
      -webkit-animation: animate-svg-fill-2 0.01s ease-in 0.01s both;
      animation: animate-svg-fill-2 0.01s ease-in 0.01s both;
    }

    @-webkit-keyframes animate-svg-fill-3 {
      0% {
        fill: transparent;
      }

      100% {
        fill: rgb(255, 255, 255);
      }
    }

    @keyframes animate-svg-fill-3 {
      0% {
        fill: transparent;
      }

      100% {
        fill: rgb(255, 255, 255);
      }
    }

    .g-3 {
      -webkit-animation: animate-svg-fill-3 0.01s ease-in 0.02s both;
      animation: animate-svg-fill-3 0.01s ease-in 0.02s both;
    }
  </style>
</svg>